<svg xmlns="http://www.w3.org/2000/svg" xmlns:xlink="http://www.w3.org/1999/xlink" xmlns:lucid="lucid" width="1655" height="1100"><g transform="translate(-160 -100)" lucid:page-tab-id="0_0"><path d="M0 0h1870.4v1323.2H0z" fill="#fff"/><path d="M220 182c0-16.57 13.43-30 30-30h1340c16.57 0 30 13.43 30 30v968c0 16.57-13.43 30-30 30H250c-16.57 0-30-13.43-30-30z" stroke="#474747" fill-opacity="0"/><path d="M328 154.4v3.54c0 6.42-7.1 13.05-15.76 13.05h-46.48c-8.66 0-15.75-6.64-15.75-13.06v-3.54z" fill="#9d5125"/><path d="M280.03 120c8.03 0 14.82 4.4 18.17 11.67 4.6-3.14 10.92-1.98 14.04 2.65 1.17 1.64 1.7 3.32 1.8 5.3 7.87.68 13.95 8.25 13.95 14.27v1.3c0 6.45-7.1 13-15.76 13h-46.5c-8.64 0-15.74-6.55-15.74-13v-1.3c0-5.02 4.2-11.87 10.06-13.56v-.57c.08-10.95 8.97-19.82 19.97-19.77z" fill="#f58535"/><path d="M269.54 143.13l-5.2 18.2h3.04l1.17-4.43h5.38l1.1 4.43h3.05l-4.8-18.2zm-.47 11.4l2.22-8.98 2.1 8.97zM291.2 157.34h-.03l-2.47-14.2h-3.1l-2.4 14.13h-.06l-2.4-14.14h-2.95l3.53 18.2h3.38l2.35-13.7h.06l2.36 13.7h3.4l3.64-18.2h-2.9l-2.4 14.2zM305.9 151.4l-1.98-.72c-1.93-.7-2.74-1.53-2.74-3.1-.17-1.26.74-2.43 2-2.6.16-.02.3-.02.45-.02 1.26-.17 2.4.72 2.58 1.96.04.25.03.44 0 .68v.38h2.93v-.4c0-1.9-.5-4.8-5.18-4.8-3.44 0-5.7 1.84-5.7 5.16 0 2.6 1.1 3.97 3.82 5l2 .68c1.6.23 2.73 1.6 2.64 3.2.04 1.45-1.08 2.64-2.5 2.68h-.28c-2 0-3-1.12-3-3.33v-.47h-2.9v.44c0 2.54 1.02 5.53 5.52 5.53 3.7 0 6.07-1.6 6.07-5.48.04-2.5-1.1-3.9-3.7-4.8z" fill="#fff"/><use xlink:href="#a" transform="matrix(1,0,0,1,220,1150) translate(655.875 12.799999999999999)"/><use xlink:href="#b" transform="matrix(1,0,0,1,220,1150) translate(701.175 12.799999999999999)"/><path d="M260 242c0-16.57 13.43-30 30-30h1260c16.57 0 30 13.43 30 30v868c0 16.57-13.43 30-30 30H290c-16.57 0-30-13.43-30-30z" stroke="#474747" fill-opacity="0"/><path d="M368 214.4v3.54c0 6.42-7.1 13.05-15.76 13.05h-46.48c-8.66 0-15.75-6.64-15.75-13.06v-3.54z" fill="#9d5125"/><path d="M320.03 180c8.03 0 14.82 4.4 18.17 11.67 4.6-3.14 10.92-1.98 14.04 2.65 1.17 1.64 1.7 3.32 1.8 5.3 7.87.68 13.95 8.25 13.95 14.27v1.3c0 6.45-7.1 13-15.76 13h-46.5c-8.64 0-15.74-6.55-15.74-13v-1.3c0-5.02 4.2-11.87 10.06-13.56v-.57c.08-10.95 8.97-19.82 19.97-19.77z" fill="#f58535"/><path d="M308.9 203.13h3.08l3.1 14.58 3.32-14.54h3.1l-4.6 18.2h-3.7zM323.37 203.13h5.77c3.5 0 5.04 2.2 5.04 5.3 0 3.1-1.9 5.4-5.33 5.4h-2.57v7.53h-2.9zm2.9 8.5h2.08c1.56 0 2.9-.83 2.9-3.14 0-1.98-.78-3.17-3.1-3.17h-1.87zM347.8 214.83v.38c0 3.32-1.3 6.52-5.6 6.52-4.6 0-6.04-2.97-6.04-9.47s1.43-9.46 6.05-9.46c5.2 0 5.54 3.8 5.54 5.7v.37h-2.9v-.3c0-1.7-.5-3.64-2.6-3.57-2.08.08-3.1 1.35-3.1 7.22 0 5.87.92 7.3 3.14 7.3 2.42 0 2.7-2.7 2.7-4.42v-.3z" fill="#fff"/><use xlink:href="#c" transform="matrix(1,0,0,1,260,1110) translate(582.65 12.799999999999999)"/><use xlink:href="#d" transform="matrix(1,0,0,1,260,1110) translate(635.5 12.799999999999999)"/><use xlink:href="#b" transform="matrix(1,0,0,1,260,1110) translate(694.4 12.799999999999999)"/><path d="M320 310c0-16.57 13.43-30 30-30h1120c16.57 0 30 13.43 30 30v340c0 16.57-13.43 30-30 30H350c-16.57 0-30-13.43-30-30z" fill-opacity="0"/><path d="M335.04 284.1l3.17-1.7 4.72-1.56 4.93-.76L350 280h14.93m14.94 0h29.86m14.94 0h29.86m14.94 0h29.86m14.94 0h29.86m14.94 0h29.86m14.94 0h29.86m14.94 0h29.86m14.94 0h29.86m14.94 0h29.86m14.94 0h29.86m14.94 0h29.86m14.94 0h29.86m14.94 0h29.86m14.94 0h29.86m14.94 0h29.86m14.94 0h29.86m14.94 0h29.86m14.94 0h29.86m14.94 0h29.86m14.94 0h29.86m14.94 0h29.86m14.94 0h29.86m14.94 0h29.86m14.94 0h29.86m14.94 0H1470l5 .42 4.82 1.22 4.54 2 .6.42m10.95 10.98l1.7 3.17 1.56 4.72.76 4.93.08 2.15v14.17m0 14.16v28.34m0 14.16v28.34m0 14.16v28.34m0 14.16v28.34m0 14.16v28.34m0 14.16v28.34m0 14.16v28.34m0 14.16V650l-.42 5-1.22 4.82-2 4.54-.42.6m-10.98 10.95l-3.17 1.7-4.72 1.56-4.93.76-2.15.08h-14.93m-14.94 0h-29.86m-14.94 0h-29.86m-14.94 0h-29.86m-14.94 0h-29.86m-14.94 0h-29.86m-14.94 0h-29.86m-14.94 0h-29.86m-14.94 0h-29.86m-14.94 0h-29.86m-14.94 0h-29.86m-14.94 0h-29.86m-14.94 0h-29.86m-14.94 0h-29.86m-14.94 0h-29.86m-14.94 0h-29.86m-14.94 0h-29.86m-14.94 0h-29.86m-14.94 0h-29.86m-14.94 0h-29.86m-14.94 0h-29.86m-14.94 0h-29.86m-14.94 0h-29.86m-14.94 0h-29.86m-14.94 0h-29.86m-14.94 0H350l-5-.42-4.82-1.22-4.54-2-.6-.42m-10.95-10.98l-1.7-3.17-1.56-4.72-.76-4.93L320 650v-14.17m0-14.16v-28.34m0-14.16v-28.34m0-14.16v-28.34m0-14.16v-28.34m0-14.16v-28.34m0-14.16v-28.34m0-14.16v-28.34m0-14.16V310l.42-5 1.22-4.82 2-4.54.42-.6" stroke="#f7981f" stroke-width="3" fill="none"/><use xlink:href="#e" transform="matrix(1,0,0,1,320,650) translate(524.825 12.799999999999999)"/><use xlink:href="#f" transform="matrix(1,0,0,1,320,650) translate(614.225 12.799999999999999)"/><path d="M320 730c0-16.57 13.43-30 30-30h1120c16.57 0 30 13.43 30 30v320c0 16.57-13.43 30-30 30H350c-16.57 0-30-13.43-30-30z" fill-opacity="0"/><path d="M335.04 704.1l3.17-1.7 4.72-1.56 4.93-.76L350 700h14.93m14.94 0h29.86m14.94 0h29.86m14.94 0h29.86m14.94 0h29.86m14.94 0h29.86m14.94 0h29.86m14.94 0h29.86m14.94 0h29.86m14.94 0h29.86m14.94 0h29.86m14.94 0h29.86m14.94 0h29.86m14.94 0h29.86m14.94 0h29.86m14.94 0h29.86m14.94 0h29.86m14.94 0h29.86m14.94 0h29.86m14.94 0h29.86m14.94 0h29.86m14.94 0h29.86m14.94 0h29.86m14.94 0h29.86m14.94 0h29.86m14.94 0H1470l5 .42 4.82 1.22 4.54 2 .6.42m10.95 10.98l1.7 3.17 1.56 4.72.76 4.93.08 2.15v15.24m0 15.24v30.47m0 15.24v30.47m0 15.23v30.48m0 15.24v30.48m0 15.23v30.48m0 15.25v30.47m0 15.24V1050l-.42 5-1.22 4.82-2 4.54-.42.6m-10.98 10.95l-3.17 1.7-4.72 1.56-4.93.76-2.15.08h-14.93m-14.94 0h-29.86m-14.94 0h-29.86m-14.94 0h-29.86m-14.94 0h-29.86m-14.94 0h-29.86m-14.94 0h-29.86m-14.94 0h-29.86m-14.94 0h-29.86m-14.94 0h-29.86m-14.94 0h-29.86m-14.94 0h-29.86m-14.94 0h-29.86m-14.94 0h-29.86m-14.94 0h-29.86m-14.94 0h-29.86m-14.94 0h-29.86m-14.94 0h-29.86m-14.94 0h-29.86m-14.94 0h-29.86m-14.94 0h-29.86m-14.94 0h-29.86m-14.94 0h-29.86m-14.94 0h-29.86m-14.94 0h-29.86m-14.94 0H350l-5-.42-4.82-1.22-4.54-2-.6-.42m-10.95-10.98l-1.7-3.17-1.56-4.72-.76-4.93-.08-2.15v-15.24m0-15.24v-30.47m0-15.24v-30.47m0-15.23v-30.48m0-15.24V851.9m0-15.23V806.2m0-15.25v-30.47m0-15.24V730l.42-5 1.22-4.82 2-4.54.42-.6" stroke="#f7981f" stroke-width="3" fill="none"/><use xlink:href="#e" transform="matrix(1,0,0,1,320,1050) translate(524.825 12.799999999999999)"/><use xlink:href="#f" transform="matrix(1,0,0,1,320,1050) translate(614.225 12.799999999999999)"/><path d="M1020 342c0-16.57 13.43-30 30-30h400c16.57 0 30 13.43 30 30v688c0 16.57-13.43 30-30 30h-400c-16.57 0-30-13.43-30-30z" stroke="#474747" fill-opacity="0"/><path d="M1081.97 300.24v-5.9c0-7.25-5.88-13.13-13.12-13.13-7.24 0-13.12 5.9-13.12 13.14v5.9h6.64v-5.9c0-3.58 2.9-6.5 6.48-6.5 3.57 0 6.48 2.92 6.48 6.5v5.9h6.64z" fill="#876a22"/><path d="M1081.98 300.26h5.42v20.83H1050v-20.84h5.72v-7.1c0-7.28 5.87-13.16 13.13-13.16 7.26 0 13.13 5.88 13.13 13.15v7.1zm-6.66 0v-7.1c0-3.6-2.88-6.5-6.47-6.5-3.6 0-6.47 2.9-6.47 6.5v7.1h12.94z" fill="#daa835"/><path d="M1050 321.1h37.4v.9H1050z" fill="#876a22"/><use xlink:href="#g" transform="matrix(1,0,0,1,1020,1030) translate(152.575 12.799999999999999)"/><use xlink:href="#d" transform="matrix(1,0,0,1,1020,1030) translate(194.52499999999998 12.799999999999999)"/><use xlink:href="#h" transform="matrix(1,0,0,1,1020,1030) translate(253.42499999999998 12.799999999999999)"/><path d="M380 342c0-16.57 13.43-30 30-30h400c16.57 0 30 13.43 30 30v688c0 16.57-13.43 30-30 30H410c-16.57 0-30-13.43-30-30z" stroke="#474747" fill-opacity="0"/><path d="M441.97 300.24v-5.9c0-7.25-5.88-13.13-13.12-13.13-7.24 0-13.12 5.9-13.12 13.14v5.9h6.64v-5.9c0-3.58 2.9-6.5 6.48-6.5 3.57 0 6.48 2.92 6.48 6.5v5.9h6.64z" fill="#876a22"/><path d="M441.98 300.26h5.42v20.83H410v-20.84h5.72v-7.1c0-7.28 5.87-13.16 13.13-13.16 7.26 0 13.13 5.88 13.13 13.15v7.1zm-6.66 0v-7.1c0-3.6-2.88-6.5-6.47-6.5-3.6 0-6.47 2.9-6.47 6.5v7.1h12.94z" fill="#daa835"/><path d="M410 321.1h37.4v.9H410z" fill="#876a22"/><use xlink:href="#g" transform="matrix(1,0,0,1,380,1030) translate(156.075 12.799999999999999)"/><use xlink:href="#i" transform="matrix(1,0,0,1,380,1030) translate(198.02499999999998 12.799999999999999)"/><use xlink:href="#h" transform="matrix(1,0,0,1,380,1030) translate(249.925 12.799999999999999)"/><path d="M295 682.36c0 31.8-25.76 57.63-57.5 57.63S180 714.16 180 682.35c0-31.8 25.76-57.63 57.5-57.63s57.5 25.82 57.5 57.63z" fill="#9d5025"/><path d="M180 677.62h115v4.73H180v-4.73z" fill="#9d5025"/><path d="M295 677.63c0 31.8-25.76 57.63-57.5 57.63S180 709.44 180 677.63c0-31.8 25.76-57.63 57.5-57.63s57.5 25.82 57.5 57.63z" fill="#f58536"/><path d="M194.15 683.36v-1.5c.43-7 4.33-12.8 10.65-15.86.6-12.86 11.52-22.8 24.43-22.12 8.05.38 14.8 4.5 18.88 11.47 6.6-2.77 14.13.28 16.9 6.82.43.95.7 1.72.86 2.67 8.67 1.72 14.9 10.03 14.9 17.02v1.4c0 8.53-8.83 16-18.88 16h-48.94c-9.96.07-18.8-7.42-18.8-15.9z" fill="#fff"/><path d="M249.27 661.48l-3.67 2.54-1.87-4.06c-2.85-6.34-8.7-10.23-15.66-10.27H228c-9.52 0-17.3 7.77-17.3 17.38v3.23l-2.7.8c-4.57 1.83-7.57 5.85-7.94 10.8v1.4c0 4.66 5.7 10.08 12.96 10.08h49c7.33 0 12.95-5.42 12.95-10.1v-1.4c0-4.7-5.25-10.87-11.3-11.35l-3.3-.26-.24-3.28c0-1.4-.44-2.54-1.2-3.68-2.17-3.2-6.5-3.98-9.66-1.8z" fill="#f58536"/><use xlink:href="#j" transform="matrix(1,0,0,1,180,740) translate(27.55 14.4)"/><use xlink:href="#k" transform="matrix(1,0,0,1,180,740) translate(24.025 36)"/><path d="M1795 653.96c0 31.8-25.76 57.63-57.5 57.63s-57.5-25.83-57.5-57.64c0-31.8 25.76-57.63 57.5-57.63s57.5 25.82 57.5 57.63z" fill="#9d5025"/><path d="M1795 649.23c0 31.8-25.76 57.63-57.5 57.63s-57.5-25.82-57.5-57.63c0-31.8 25.76-57.63 57.5-57.63s57.5 25.82 57.5 57.63z" fill="#f58536"/><path d="M1753.06 622.46h6.06v53.5h-6.06v-53.5zM1770.1 636l15.88 12.97-15.87 13.48V636z" fill="#fff"/><path d="M1713.98 646.2l3.5 2.8-3.85 3.26h59.15v-6.06h-58.8zM1713.63 625.5h45.5v-6.06h-45.14l3.45 2.82-3.82 3.25zM1717.45 675.75l-3.82 3.26h45.5v-6.06h-45.14l3.45 2.8zM1701 638.64l12.68 10.35-12.7 10.8v-21.16zM1701 611.9l12.68 10.35-12.7 10.8v-21.16zM1701 665.4l12.68 10.36-12.7 10.78V665.4z" fill="#fff"/><g><use xlink:href="#g" transform="matrix(1,0,0,1,1680,711.5999999999999) translate(19.424999999999997 14.4)"/><use xlink:href="#l" transform="matrix(1,0,0,1,1680,711.5999999999999) translate(61.375 14.4)"/><use xlink:href="#k" transform="matrix(1,0,0,1,1680,711.5999999999999) translate(24.025 36)"/></g><defs><path d="M205 0l-28-72H64L36 0H1l101-248h38L239 0h-34zm-38-99l-47-123c-12 45-31 82-46 123h93" id="m"/><path d="M266 0h-40l-56-210L115 0H75L2-248h35L96-30l15-64 43-154h32l59 218 59-218h35" id="n"/><path d="M185-189c-5-48-123-54-124 2 14 75 158 14 163 119 3 78-121 87-175 55-17-10-28-26-33-46l33-7c5 56 141 63 141-1 0-78-155-14-162-118-5-82 145-84 179-34 5 7 8 16 11 25" id="o"/><g id="a"><use transform="matrix(0.05,0,0,0.05,0,0)" xlink:href="#m"/><use transform="matrix(0.05,0,0,0.05,11.35,0)" xlink:href="#n"/><use transform="matrix(0.05,0,0,0.05,28.299999999999997,0)" xlink:href="#o"/></g><path d="M96-169c-40 0-48 33-48 73s9 75 48 75c24 0 41-14 43-38l32 2c-6 37-31 61-74 61-59 0-76-41-82-99-10-93 101-131 147-64 4 7 5 14 7 22l-32 3c-4-21-16-35-41-35" id="p"/><path d="M24 0v-261h32V0H24" id="q"/><path d="M100-194c62-1 85 37 85 99 1 63-27 99-86 99S16-35 15-95c0-66 28-99 85-99zM99-20c44 1 53-31 53-75 0-43-8-75-51-75s-53 32-53 75 10 74 51 75" id="r"/><path d="M84 4C-5 8 30-112 23-190h32v120c0 31 7 50 39 49 72-2 45-101 50-169h31l1 190h-30c-1-10 1-25-2-33-11 22-28 36-60 37" id="s"/><path d="M85-194c31 0 48 13 60 33l-1-100h32l1 261h-30c-2-10 0-23-3-31C134-8 116 4 85 4 32 4 16-35 15-94c0-66 23-100 70-100zm9 24c-40 0-46 34-46 75 0 40 6 74 45 74 42 0 51-32 51-76 0-42-9-74-50-73" id="t"/><g id="b"><use transform="matrix(0.05,0,0,0.05,0,0)" xlink:href="#p"/><use transform="matrix(0.05,0,0,0.05,9,0)" xlink:href="#q"/><use transform="matrix(0.05,0,0,0.05,12.949999999999998,0)" xlink:href="#r"/><use transform="matrix(0.05,0,0,0.05,22.95,0)" xlink:href="#s"/><use transform="matrix(0.05,0,0,0.05,32.95,0)" xlink:href="#t"/></g><path d="M108 0H70L1-190h34L89-25l56-165h34" id="u"/><path d="M24-231v-30h32v30H24zM24 0v-190h32V0H24" id="v"/><path d="M114-163C36-179 61-72 57 0H25l-1-190h30c1 12-1 29 2 39 6-27 23-49 58-41v29" id="w"/><path d="M59-47c-2 24 18 29 38 22v24C64 9 27 4 27-40v-127H5v-23h24l9-43h21v43h35v23H59v120" id="x"/><path d="M141-36C126-15 110 5 73 4 37 3 15-17 15-53c-1-64 63-63 125-63 3-35-9-54-41-54-24 1-41 7-42 31l-33-3c5-37 33-52 76-52 45 0 72 20 72 64v82c-1 20 7 32 28 27v20c-31 9-61-2-59-35zM48-53c0 20 12 33 32 33 41-3 63-29 60-74-43 2-92-5-92 41" id="y"/><g id="c"><use transform="matrix(0.05,0,0,0.05,0,0)" xlink:href="#u"/><use transform="matrix(0.05,0,0,0.05,9,0)" xlink:href="#v"/><use transform="matrix(0.05,0,0,0.05,12.949999999999998,0)" xlink:href="#w"/><use transform="matrix(0.05,0,0,0.05,18.9,0)" xlink:href="#x"/><use transform="matrix(0.05,0,0,0.05,23.9,0)" xlink:href="#s"/><use transform="matrix(0.05,0,0,0.05,33.9,0)" xlink:href="#y"/><use transform="matrix(0.05,0,0,0.05,43.9,0)" xlink:href="#q"/></g><path d="M115-194c55 1 70 41 70 98S169 2 115 4C84 4 66-9 55-30l1 105H24l-1-265h31l2 30c10-21 28-34 59-34zm-8 174c40 0 45-34 45-75s-6-73-45-74c-42 0-51 32-51 76 0 43 10 73 51 73" id="z"/><path d="M100-194c63 0 86 42 84 106H49c0 40 14 67 53 68 26 1 43-12 49-29l28 8c-11 28-37 45-77 45C44 4 14-33 15-96c1-61 26-98 85-98zm52 81c6-60-76-77-97-28-3 7-6 17-6 28h103" id="A"/><g id="d"><use transform="matrix(0.05,0,0,0.05,0,0)" xlink:href="#z"/><use transform="matrix(0.05,0,0,0.05,10,0)" xlink:href="#w"/><use transform="matrix(0.05,0,0,0.05,15.949999999999998,0)" xlink:href="#v"/><use transform="matrix(0.05,0,0,0.05,19.9,0)" xlink:href="#u"/><use transform="matrix(0.05,0,0,0.05,28.899999999999995,0)" xlink:href="#y"/><use transform="matrix(0.05,0,0,0.05,38.9,0)" xlink:href="#x"/><use transform="matrix(0.05,0,0,0.05,43.9,0)" xlink:href="#A"/></g><path d="M115-194c53 0 69 39 70 98 0 66-23 100-70 100C84 3 66-7 56-30L54 0H23l1-261h32v101c10-23 28-34 59-34zm-8 174c40 0 45-34 45-75 0-40-5-75-45-74-42 0-51 32-51 76 0 43 10 73 51 73" id="B"/><path d="M179-190L93 31C79 59 56 82 12 73V49c39 6 53-20 64-50L1-190h34L92-34l54-156h33" id="C"/><g id="e"><use transform="matrix(0.05,0,0,0.05,0,0)" xlink:href="#m"/><use transform="matrix(0.05,0,0,0.05,11.65,0)" xlink:href="#u"/><use transform="matrix(0.05,0,0,0.05,20.65,0)" xlink:href="#y"/><use transform="matrix(0.05,0,0,0.05,30.649999999999995,0)" xlink:href="#v"/><use transform="matrix(0.05,0,0,0.05,34.6,0)" xlink:href="#q"/><use transform="matrix(0.05,0,0,0.05,38.550000000000004,0)" xlink:href="#y"/><use transform="matrix(0.05,0,0,0.05,48.550000000000004,0)" xlink:href="#B"/><use transform="matrix(0.05,0,0,0.05,58.550000000000004,0)" xlink:href="#v"/><use transform="matrix(0.05,0,0,0.05,62.5,0)" xlink:href="#q"/><use transform="matrix(0.05,0,0,0.05,66.45,0)" xlink:href="#v"/><use transform="matrix(0.05,0,0,0.05,70.4,0)" xlink:href="#x"/><use transform="matrix(0.05,0,0,0.05,75.4,0)" xlink:href="#C"/></g><path d="M209 0H11v-25l151-195H24v-28h176v25L50-27h159V0" id="D"/><path d="M117-194c89-4 53 116 60 194h-32v-121c0-31-8-49-39-48C34-167 62-67 57 0H25l-1-190h30c1 10-1 24 2 32 11-22 29-35 61-36" id="E"/><g id="f"><use transform="matrix(0.05,0,0,0.05,0,0)" xlink:href="#D"/><use transform="matrix(0.05,0,0,0.05,10.950000000000001,0)" xlink:href="#r"/><use transform="matrix(0.05,0,0,0.05,20.950000000000003,0)" xlink:href="#E"/><use transform="matrix(0.05,0,0,0.05,30.950000000000003,0)" xlink:href="#A"/></g><path d="M137 0h-34L2-248h35l83 218 83-218h36" id="F"/><path d="M30-248c87 1 191-15 191 75 0 78-77 80-158 76V0H30v-248zm33 125c57 0 124 11 124-50 0-59-68-47-124-48v98" id="G"/><path d="M212-179c-10-28-35-45-73-45-59 0-87 40-87 99 0 60 29 101 89 101 43 0 62-24 78-52l27 14C228-24 195 4 139 4 59 4 22-46 18-125c-6-104 99-153 187-111 19 9 31 26 39 46" id="H"/><g id="g"><use transform="matrix(0.05,0,0,0.05,0,0)" xlink:href="#F"/><use transform="matrix(0.05,0,0,0.05,12,0)" xlink:href="#G"/><use transform="matrix(0.05,0,0,0.05,24,0)" xlink:href="#H"/></g><path d="M135-143c-3-34-86-38-87 0 15 53 115 12 119 90S17 21 10-45l28-5c4 36 97 45 98 0-10-56-113-15-118-90-4-57 82-63 122-42 12 7 21 19 24 35" id="I"/><g id="h"><use transform="matrix(0.05,0,0,0.05,0,0)" xlink:href="#I"/><use transform="matrix(0.05,0,0,0.05,9,0)" xlink:href="#s"/><use transform="matrix(0.05,0,0,0.05,19,0)" xlink:href="#B"/><use transform="matrix(0.05,0,0,0.05,29,0)" xlink:href="#E"/><use transform="matrix(0.05,0,0,0.05,39,0)" xlink:href="#A"/><use transform="matrix(0.05,0,0,0.05,49,0)" xlink:href="#x"/></g><g id="i"><use transform="matrix(0.05,0,0,0.05,0,0)" xlink:href="#z"/><use transform="matrix(0.05,0,0,0.05,10,0)" xlink:href="#s"/><use transform="matrix(0.05,0,0,0.05,20,0)" xlink:href="#B"/><use transform="matrix(0.05,0,0,0.05,30,0)" xlink:href="#q"/><use transform="matrix(0.05,0,0,0.05,33.95,0)" xlink:href="#v"/><use transform="matrix(0.05,0,0,0.05,37.900000000000006,0)" xlink:href="#p"/></g><g id="j"><use transform="matrix(0.05,0,0,0.05,0,0)" xlink:href="#v"/><use transform="matrix(0.05,0,0,0.05,3.95,0)" xlink:href="#E"/><use transform="matrix(0.05,0,0,0.05,13.949999999999998,0)" xlink:href="#x"/><use transform="matrix(0.05,0,0,0.05,18.95,0)" xlink:href="#A"/><use transform="matrix(0.05,0,0,0.05,28.950000000000003,0)" xlink:href="#w"/><use transform="matrix(0.05,0,0,0.05,34.9,0)" xlink:href="#E"/><use transform="matrix(0.05,0,0,0.05,44.9,0)" xlink:href="#A"/><use transform="matrix(0.05,0,0,0.05,54.900000000000006,0)" xlink:href="#x"/></g><path d="M177-190C167-65 218 103 67 71c-23-6-38-20-44-43l32-5c15 47 100 32 89-28v-30C133-14 115 1 83 1 29 1 15-40 15-95c0-56 16-97 71-98 29-1 48 16 59 35 1-10 0-23 2-32h30zM94-22c36 0 50-32 50-73 0-42-14-75-50-75-39 0-46 34-46 75s6 73 46 73" id="J"/><path d="M206 0h-36l-40-164L89 0H53L-1-190h32L70-26l43-164h34l41 164 42-164h31" id="K"/><g id="k"><use transform="matrix(0.05,0,0,0.05,0,0)" xlink:href="#J"/><use transform="matrix(0.05,0,0,0.05,10,0)" xlink:href="#y"/><use transform="matrix(0.05,0,0,0.05,20,0)" xlink:href="#x"/><use transform="matrix(0.05,0,0,0.05,25,0)" xlink:href="#A"/><use transform="matrix(0.05,0,0,0.05,35,0)" xlink:href="#K"/><use transform="matrix(0.05,0,0,0.05,47.95,0)" xlink:href="#y"/><use transform="matrix(0.05,0,0,0.05,57.95,0)" xlink:href="#C"/></g><path d="M190 0L58-211 59 0H30v-248h39L202-35l-2-213h31V0h-41" id="L"/><path d="M127-220V0H93v-220H8v-28h204v28h-85" id="M"/><g id="l"><use transform="matrix(0.05,0,0,0.05,0,0)" xlink:href="#L"/><use transform="matrix(0.05,0,0,0.05,12.950000000000001,0)" xlink:href="#m"/><use transform="matrix(0.05,0,0,0.05,23.6,0)" xlink:href="#M"/></g></defs></g></svg>