<svg xmlns="http://www.w3.org/2000/svg" xmlns:xlink="http://www.w3.org/1999/xlink" xmlns:lucid="lucid" width="1100" height="980"><g transform="translate(-60 -20)" lucid:page-tab-id="0_0"><path d="M260 352c0-16.57 13.43-30 30-30h300c16.57 0 30 13.43 30 30v178c0 16.57-13.43 30-30 30H290c-16.57 0-30-13.43-30-30z" stroke="#474747" fill-opacity="0"/><path d="M321.97 310.24v-5.9c0-7.25-5.88-13.13-13.12-13.13-7.24 0-13.12 5.9-13.12 13.14v5.9h6.64v-5.9c0-3.58 2.9-6.5 6.48-6.5 3.57 0 6.48 2.92 6.48 6.5v5.9h6.64z" fill="#876a22"/><path d="M321.98 310.26h5.42v20.83H290v-20.84h5.72v-7.1c0-7.28 5.87-13.16 13.13-13.16 7.26 0 13.13 5.88 13.13 13.15v7.1zm-6.66 0v-7.1c0-3.6-2.88-6.5-6.47-6.5-3.6 0-6.47 2.9-6.47 6.5v7.1h12.94z" fill="#daa835"/><path d="M290 331.1h37.4v.9H290z" fill="#876a22"/><use xlink:href="#a" transform="matrix(1,0,0,1,260,530) translate(126.55 12.799999999999999)"/><use xlink:href="#b" transform="matrix(1,0,0,1,260,530) translate(180.45 12.799999999999999)"/><path d="M160 302c0-16.57 13.43-30 30-30h900c16.57 0 30 13.43 30 30v588c0 16.57-13.43 30-30 30H190c-16.57 0-30-13.43-30-30z" stroke="#474747" fill-opacity="0"/><path d="M268 274.4v3.54c0 6.42-7.1 13.05-15.76 13.05h-46.48c-8.66 0-15.75-6.64-15.75-13.06v-3.54z" fill="#9d5125"/><path d="M220.03 240c8.03 0 14.82 4.4 18.17 11.67 4.6-3.14 10.92-1.98 14.04 2.65 1.17 1.64 1.7 3.32 1.8 5.3 7.87.68 13.95 8.25 13.95 14.27v1.3c0 6.45-7.1 13-15.76 13h-46.5c-8.64 0-15.74-6.55-15.74-13v-1.3c0-5.02 4.2-11.87 10.06-13.56v-.57c.08-10.95 8.97-19.82 19.97-19.77z" fill="#f58535"/><path d="M208.9 263.13h3.08l3.1 14.58 3.32-14.54h3.1l-4.6 18.2h-3.7zM223.37 263.13h5.77c3.5 0 5.04 2.2 5.04 5.3 0 3.1-1.9 5.4-5.33 5.4h-2.57v7.53h-2.9zm2.9 8.5h2.08c1.56 0 2.9-.83 2.9-3.14 0-1.98-.78-3.17-3.1-3.17h-1.87zM247.8 274.83v.38c0 3.32-1.3 6.52-5.6 6.52-4.6 0-6.04-2.97-6.04-9.47s1.43-9.46 6.05-9.46c5.2 0 5.54 3.8 5.54 5.7v.37h-2.9v-.3c0-1.7-.5-3.64-2.6-3.57-2.08.08-3.1 1.35-3.1 7.22 0 5.87.92 7.3 3.14 7.3 2.42 0 2.7-2.7 2.7-4.42v-.3z" fill="#fff"/><use xlink:href="#c" transform="matrix(1,0,0,1,160,890) translate(402.65 12.799999999999999)"/><use xlink:href="#d" transform="matrix(1,0,0,1,160,890) translate(455.5 12.799999999999999)"/><use xlink:href="#e" transform="matrix(1,0,0,1,160,890) translate(514.4 12.799999999999999)"/><path d="M120 242c0-16.57 13.43-30 30-30h960c16.57 0 30 13.43 30 30v708c0 16.57-13.43 30-30 30H150c-16.57 0-30-13.43-30-30z" stroke="#474747" fill-opacity="0"/><path d="M228 214.4v3.54c0 6.42-7.1 13.05-15.76 13.05h-46.48c-8.66 0-15.75-6.64-15.75-13.06v-3.54z" fill="#9d5125"/><path d="M180.03 180c8.03 0 14.82 4.4 18.17 11.67 4.6-3.14 10.92-1.98 14.04 2.65 1.17 1.64 1.7 3.32 1.8 5.3 7.87.68 13.95 8.25 13.95 14.27v1.3c0 6.45-7.1 13-15.76 13h-46.5c-8.64 0-15.74-6.55-15.74-13v-1.3c0-5.02 4.2-11.87 10.06-13.56v-.57c.08-10.95 8.97-19.82 19.97-19.77z" fill="#f58535"/><path d="M169.54 203.13l-5.2 18.2h3.04l1.17-4.43h5.38l1.1 4.43h3.05l-4.8-18.2zm-.47 11.4l2.22-8.98 2.1 8.97zM191.2 217.34h-.03l-2.47-14.2h-3.1l-2.4 14.13h-.06l-2.4-14.14h-2.95l3.53 18.2h3.38l2.35-13.7h.06l2.36 13.7h3.4l3.64-18.2h-2.9l-2.4 14.2zM205.9 211.4l-1.98-.72c-1.93-.7-2.74-1.53-2.74-3.1-.17-1.26.74-2.43 2-2.6.16-.02.3-.02.45-.02 1.26-.17 2.4.72 2.58 1.96.04.25.03.44 0 .68v.38h2.93v-.4c0-1.9-.5-4.8-5.18-4.8-3.44 0-5.7 1.84-5.7 5.16 0 2.6 1.1 3.97 3.82 5l2 .68c1.6.23 2.73 1.6 2.64 3.2.04 1.45-1.08 2.64-2.5 2.68h-.28c-2 0-3-1.12-3-3.33v-.47h-2.9v.44c0 2.54 1.02 5.53 5.52 5.53 3.7 0 6.07-1.6 6.07-5.48.04-2.5-1.1-3.9-3.7-4.8z" fill="#fff"/><use xlink:href="#f" transform="matrix(1,0,0,1,120,950) translate(465.875 12.799999999999999)"/><use xlink:href="#e" transform="matrix(1,0,0,1,120,950) translate(511.175 12.799999999999999)"/><path d="M720 352c0-16.57 13.43-30 30-30h300c16.57 0 30 13.43 30 30v178c0 16.57-13.43 30-30 30H750c-16.57 0-30-13.43-30-30z" stroke="#474747" fill-opacity="0"/><path d="M781.97 310.24v-5.9c0-7.25-5.88-13.13-13.12-13.13-7.24 0-13.12 5.9-13.12 13.14v5.9h6.64v-5.9c0-3.58 2.9-6.5 6.48-6.5 3.57 0 6.48 2.92 6.48 6.5v5.9h6.64z" fill="#876a22"/><path d="M781.98 310.26h5.42v20.83H750v-20.84h5.72v-7.1c0-7.28 5.87-13.16 13.13-13.16 7.26 0 13.13 5.88 13.13 13.15v7.1zm-6.66 0v-7.1c0-3.6-2.88-6.5-6.47-6.5-3.6 0-6.47 2.9-6.47 6.5v7.1h12.94z" fill="#daa835"/><path d="M750 331.1h37.4v.9H750z" fill="#876a22"/><use xlink:href="#g" transform="matrix(1,0,0,1,720,530) translate(123.05 12.799999999999999)"/><use xlink:href="#b" transform="matrix(1,0,0,1,720,530) translate(183.95 12.799999999999999)"/><path d="M860.46 662.34l-4.96 2.5v70.32l4.96 2.48 20.1-35.84-20.1-39.46z" fill="#9d5025"/><path d="M872.02 734.93l-11.56 2.7v-75.3l11.56 2.65v69.95z" fill="#f58536"/><path d="M865.93 659.58l6.1-3.04L901 703.12l-28.96 40.32-6.1-3.04v-80.82z" fill="#9d5025"/><path d="M886.46 739.36l-14.43 4.08v-86.9l14.43 4.08v78.74z" fill="#f58536"/><path d="M878.82 653.13l7.66-3.85 42.72 58.92-42.72 42.5-7.66-3.85v-93.72z" fill="#9d5025"/><path d="M904.98 743.9l-18.5 6.8V649.28l18.5 6.8v87.82z" fill="#f58536"/><path d="M895.1 644.92L905 640l46.23 63.36L905 760l-9.87-4.92V644.92z" fill="#9d5025"/><path d="M954.5 735.16L904.97 760V640l49.5 24.84v70.32z" fill="#f58536"/><use xlink:href="#h" transform="matrix(1,0,0,1,855.5,760) translate(34 14.4)"/><use xlink:href="#i" transform="matrix(1,0,0,1,855.5,760) translate(14.049999999999997 36)"/><path d="M395.46 382.34l-4.96 2.5v70.32l4.96 2.48 20.1-35.84-20.1-39.46z" fill="#9d5025"/><path d="M407.02 454.93l-11.56 2.7v-75.3l11.56 2.65v69.95z" fill="#f58536"/><path d="M400.93 379.58l6.1-3.04L436 423.12l-28.96 40.32-6.1-3.04v-80.82z" fill="#9d5025"/><path d="M421.46 459.36l-14.43 4.08v-86.9l14.43 4.08v78.74z" fill="#f58536"/><path d="M413.82 373.13l7.66-3.85 42.72 58.92-42.72 42.5-7.66-3.85v-93.72z" fill="#9d5025"/><path d="M439.98 463.9l-18.5 6.8V369.28l18.5 6.8v87.82z" fill="#f58536"/><path d="M430.1 364.92L440 360l46.23 63.36L440 480l-9.87-4.92V364.92z" fill="#9d5025"/><path d="M489.5 455.16L439.97 480V360l49.5 24.84v70.32z" fill="#f58536"/><use xlink:href="#j" transform="matrix(1,0,0,1,390.5,480) translate(32.224999999999994 14.4)"/><path d="M403.96 662.34l-4.96 2.5v70.32l4.96 2.48 20.1-35.84-20.1-39.46z" fill="#9d5025"/><path d="M415.52 734.93l-11.56 2.7v-75.3l11.56 2.65v69.95z" fill="#f58536"/><path d="M409.43 659.58l6.1-3.04 28.97 46.58-28.96 40.32-6.1-3.04v-80.82z" fill="#9d5025"/><path d="M429.96 739.36l-14.43 4.08v-86.9l14.43 4.08v78.74z" fill="#f58536"/><path d="M422.32 653.13l7.66-3.85 42.72 58.92-42.72 42.5-7.66-3.85v-93.72z" fill="#9d5025"/><path d="M448.48 743.9l-18.5 6.8V649.28l18.5 6.8v87.82z" fill="#f58536"/><path d="M438.6 644.92l9.88-4.92 46.23 63.36L448.5 760l-9.87-4.92V644.92z" fill="#9d5025"/><path d="M498 735.16L448.47 760V640l49.5 24.84v70.32z" fill="#f58536"/><use xlink:href="#k" transform="matrix(1,0,0,1,399,760) translate(19.025 14.4)"/><use xlink:href="#l" transform="matrix(1,0,0,1,399,760) translate(28.025 36)"/><path d="M195 562.36c0 31.8-25.76 57.63-57.5 57.63S80 594.16 80 562.35c0-31.8 25.76-57.63 57.5-57.63s57.5 25.82 57.5 57.63z" fill="#9d5025"/><path d="M80 557.62h115v4.73H80v-4.73z" fill="#9d5025"/><path d="M195 557.63c0 31.8-25.76 57.63-57.5 57.63S80 589.44 80 557.63c0-31.8 25.76-57.63 57.5-57.63s57.5 25.82 57.5 57.63z" fill="#f58536"/><path d="M94.14 563.36v-1.5c.44-7 4.34-12.8 10.66-15.86.6-12.86 11.52-22.8 24.43-22.12 8.05.38 14.8 4.5 18.88 11.47 6.6-2.77 14.13.28 16.9 6.82.43.95.7 1.72.86 2.67 8.67 1.72 14.9 10.03 14.9 17.02v1.4c0 8.53-8.83 16-18.88 16h-48.94c-9.96.07-18.8-7.42-18.8-15.9z" fill="#fff"/><path d="M149.27 541.48l-3.67 2.54-1.87-4.06c-2.85-6.34-8.7-10.23-15.66-10.27H128c-9.52 0-17.3 7.77-17.3 17.38v3.23l-2.7.8c-4.57 1.83-7.57 5.85-7.94 10.8v1.4c0 4.66 5.7 10.08 12.96 10.08h49c7.33 0 12.95-5.42 12.95-10.1v-1.4c0-4.7-5.25-10.87-11.3-11.35l-3.3-.26-.24-3.28c0-1.4-.44-2.54-1.2-3.68-2.17-3.2-6.5-3.98-9.66-1.8z" fill="#f58536"/><use xlink:href="#m" transform="matrix(1,0,0,1,80,620) translate(27.55 14.4)"/><use xlink:href="#n" transform="matrix(1,0,0,1,80,620) translate(24.025 36)"/><path d="M855.46 382.34l-4.96 2.5v70.32l4.96 2.48 20.1-35.84-20.1-39.46z" fill="#9d5025"/><path d="M867.02 454.93l-11.56 2.7v-75.3l11.56 2.65v69.95z" fill="#f58536"/><path d="M860.93 379.58l6.1-3.04L896 423.12l-28.96 40.32-6.1-3.04v-80.82z" fill="#9d5025"/><path d="M881.46 459.36l-14.43 4.08v-86.9l14.43 4.08v78.74z" fill="#f58536"/><path d="M873.82 373.13l7.66-3.85 42.72 58.92-42.72 42.5-7.66-3.85v-93.72z" fill="#9d5025"/><path d="M899.98 463.9l-18.5 6.8V369.28l18.5 6.8v87.82z" fill="#f58536"/><path d="M890.1 364.92L900 360l46.23 63.36L900 480l-9.87-4.92V364.92z" fill="#9d5025"/><path d="M949.5 455.16L899.97 480V360l49.5 24.84v70.32z" fill="#f58536"/><use xlink:href="#o" transform="matrix(1,0,0,1,850.5,480) translate(2.75 14.4)"/><use xlink:href="#p" transform="matrix(1,0,0,1,850.5,480) translate(38.75 14.4)"/><path d="M725 642c0-16.57 13.43-30 30-30h300c16.57 0 30 13.43 30 30v178c0 16.57-13.43 30-30 30H755c-16.57 0-30-13.43-30-30z" stroke="#474747" fill-opacity="0"/><path d="M786.97 600.24v-5.9c0-7.25-5.88-13.13-13.12-13.13-7.24 0-13.12 5.9-13.12 13.14v5.9h6.64v-5.9c0-3.58 2.9-6.5 6.48-6.5 3.57 0 6.48 2.92 6.48 6.5v5.9h6.64z" fill="#876a22"/><path d="M786.98 600.26h5.42v20.83H755v-20.84h5.72v-7.1c0-7.28 5.87-13.16 13.13-13.16 7.26 0 13.13 5.88 13.13 13.15v7.1zm-6.66 0v-7.1c0-3.6-2.88-6.5-6.47-6.5-3.6 0-6.47 2.9-6.47 6.5v7.1h12.94z" fill="#daa835"/><path d="M755 621.1h37.4v.9H755z" fill="#876a22"/><use xlink:href="#q" transform="matrix(1,0,0,1,725,820) translate(123.05 12.799999999999999)"/><use xlink:href="#r" transform="matrix(1,0,0,1,725,820) translate(183.95 12.799999999999999)"/><path d="M260 642c0-16.57 13.43-30 30-30h300c16.57 0 30 13.43 30 30v178c0 16.57-13.43 30-30 30H290c-16.57 0-30-13.43-30-30z" stroke="#474747" fill-opacity="0"/><path d="M321.97 600.24v-5.9c0-7.25-5.88-13.13-13.12-13.13-7.24 0-13.12 5.9-13.12 13.14v5.9h6.64v-5.9c0-3.58 2.9-6.5 6.48-6.5 3.57 0 6.48 2.92 6.48 6.5v5.9h6.64z" fill="#876a22"/><path d="M321.98 600.26h5.42v20.83H290v-20.84h5.72v-7.1c0-7.28 5.87-13.16 13.13-13.16 7.26 0 13.13 5.88 13.13 13.15v7.1zm-6.66 0v-7.1c0-3.6-2.88-6.5-6.47-6.5-3.6 0-6.47 2.9-6.47 6.5v7.1h12.94z" fill="#daa835"/><path d="M290 621.1h37.4v.9H290z" fill="#876a22"/><use xlink:href="#s" transform="matrix(1,0,0,1,260,820) translate(126.55 12.799999999999999)"/><use xlink:href="#r" transform="matrix(1,0,0,1,260,820) translate(180.45 12.799999999999999)"/><path d="M962.5 222.36c0 31.8-25.76 57.63-57.5 57.63s-57.5-25.83-57.5-57.64c0-31.8 25.76-57.63 57.5-57.63s57.5 25.82 57.5 57.63z" fill="#9d5025"/><path d="M962.5 217.63c0 31.8-25.76 57.63-57.5 57.63s-57.5-25.82-57.5-57.63c0-31.8 25.76-57.63 57.5-57.63s57.5 25.82 57.5 57.63z" fill="#f58536"/><path d="M921.77 171.08V192H888.2v-20.92h33.57zM947.72 231.64v17.04h-17v-17.04h17zM926.23 231.64v17.04h-17v-17.04h17zM900.05 231.64v17.04h-17v-17.04h17zM878.55 231.64v17.04h-17v-17.04h17z" fill="#fff"/><path d="M868.52 216.9h3.06v16.7h-3.06v-16.7z" fill="#fff"/><path d="M868.52 216.9h24.57v3.05H868.5v-3.06z" fill="#fff"/><path d="M890.03 216.9h3.06v16.7h-3.07v-16.7zM916.2 216.9h3.06v16.7h-3.06v-16.7z" fill="#fff"/><path d="M916.2 216.9h24.56v3.05H916.2v-3.06z" fill="#fff"/><path d="M937.7 216.9h3.06v16.7h-3.05v-16.7zM879.3 204.95h3.06v13.47h-3.06v-13.47zM903.46 188.92h3.06v16.28h-3.06v-16.28z" fill="#fff"/><path d="M879.3 203.67h50.77v3.06H879.3v-3.06z" fill="#fff"/><path d="M927 204.95h3.07v13.47H927v-13.47z" fill="#fff"/><use xlink:href="#t" transform="matrix(1,0,0,1,847.5,280) translate(13.574999999999996 14.4)"/><use xlink:href="#u" transform="matrix(1,0,0,1,847.5,280) translate(37.5 36)"/><use xlink:href="#v" transform="matrix(1,0,0,1,847.5,280) translate(22.049999999999997 57.6)"/><path d="M963.4 224.33h34c2.78 0 5 2.24 5 5v193c0 2.76-2.22 5-5 5H968" stroke="#000" stroke-width="2" fill="none"/><path d="M963.44 225.33h-1.07l.1-2h.97z"/><path d="M952.73 427.33L967 422.7v9.27z" stroke="#000" stroke-width="2"/><path d="M963.4 224.33h34c2.78 0 5 2.24 5 5V705c0 2.76-2.22 5-5 5H973" stroke="#000" stroke-width="2" fill="none"/><path d="M963.44 225.33h-1.07l.1-2h.97z"/><path d="M957.73 710l14.26-4.64v9.28z" stroke="#000" stroke-width="2"/><path d="M591 149.56L569.9 160V40L591 50.56v99z" fill="#f58536"/><path d="M548.8 149.56L569.9 160V40l-21.1 10.56v99z" fill="#9d5025"/><path d="M561.94 83.66l-35.58-4.5v-17.5L561.94 70v13.66z" fill="#f58536"/><path d="M520 64.83l6.36-3.16v17.5L520 80.9V64.84z" fill="#9d5025"/><path d="M561.95 83.65l-7.38 1.1L520 80.9l6.38-1.74 35.57 4.5z" fill="#6b3a19"/><path d="M614.72 115.08L620 114v-14h-5.28v15.08z" fill="#f58536"/><path d="M577.8 111.92l36.9 3.42V100h-36.9v11.92z" fill="#9d5025"/><g><use xlink:href="#w" transform="matrix(1,0,0,1,520,160) translate(17.025 14.4)"/><use xlink:href="#x" transform="matrix(1,0,0,1,520,160) translate(13.524999999999999 36)"/><use xlink:href="#y" transform="matrix(1,0,0,1,520,160) translate(66.475 36)"/></g><path d="M621 104h279c2.76 0 5 2.24 5 5v32.5" stroke="#000" stroke-width="2" fill="none"/><path d="M621.02 105H620v-2H621z"/><path d="M905 156.76l-4.64-14.26h9.28z" stroke="#000" stroke-width="2"/><defs><path d="M30-248c87 1 191-15 191 75 0 78-77 80-158 76V0H30v-248zm33 125c57 0 124 11 124-50 0-59-68-47-124-48v98" id="z"/><path d="M84 4C-5 8 30-112 23-190h32v120c0 31 7 50 39 49 72-2 45-101 50-169h31l1 190h-30c-1-10 1-25-2-33-11 22-28 36-60 37" id="A"/><path d="M115-194c53 0 69 39 70 98 0 66-23 100-70 100C84 3 66-7 56-30L54 0H23l1-261h32v101c10-23 28-34 59-34zm-8 174c40 0 45-34 45-75 0-40-5-75-45-74-42 0-51 32-51 76 0 43 10 73 51 73" id="B"/><path d="M24 0v-261h32V0H24" id="C"/><path d="M24-231v-30h32v30H24zM24 0v-190h32V0H24" id="D"/><path d="M96-169c-40 0-48 33-48 73s9 75 48 75c24 0 41-14 43-38l32 2c-6 37-31 61-74 61-59 0-76-41-82-99-10-93 101-131 147-64 4 7 5 14 7 22l-32 3c-4-21-16-35-41-35" id="E"/><g id="a"><use transform="matrix(0.05,0,0,0.05,0,0)" xlink:href="#z"/><use transform="matrix(0.05,0,0,0.05,12,0)" xlink:href="#A"/><use transform="matrix(0.05,0,0,0.05,22,0)" xlink:href="#B"/><use transform="matrix(0.05,0,0,0.05,32,0)" xlink:href="#C"/><use transform="matrix(0.05,0,0,0.05,35.95,0)" xlink:href="#D"/><use transform="matrix(0.05,0,0,0.05,39.900000000000006,0)" xlink:href="#E"/></g><path d="M135-143c-3-34-86-38-87 0 15 53 115 12 119 90S17 21 10-45l28-5c4 36 97 45 98 0-10-56-113-15-118-90-4-57 82-63 122-42 12 7 21 19 24 35" id="F"/><path d="M117-194c89-4 53 116 60 194h-32v-121c0-31-8-49-39-48C34-167 62-67 57 0H25l-1-190h30c1 10-1 24 2 32 11-22 29-35 61-36" id="G"/><path d="M100-194c63 0 86 42 84 106H49c0 40 14 67 53 68 26 1 43-12 49-29l28 8c-11 28-37 45-77 45C44 4 14-33 15-96c1-61 26-98 85-98zm52 81c6-60-76-77-97-28-3 7-6 17-6 28h103" id="H"/><path d="M59-47c-2 24 18 29 38 22v24C64 9 27 4 27-40v-127H5v-23h24l9-43h21v43h35v23H59v120" id="I"/><g id="b"><use transform="matrix(0.05,0,0,0.05,0,0)" xlink:href="#F"/><use transform="matrix(0.05,0,0,0.05,9,0)" xlink:href="#A"/><use transform="matrix(0.05,0,0,0.05,19,0)" xlink:href="#B"/><use transform="matrix(0.05,0,0,0.05,29,0)" xlink:href="#G"/><use transform="matrix(0.05,0,0,0.05,39,0)" xlink:href="#H"/><use transform="matrix(0.05,0,0,0.05,49,0)" xlink:href="#I"/></g><path d="M108 0H70L1-190h34L89-25l56-165h34" id="J"/><path d="M114-163C36-179 61-72 57 0H25l-1-190h30c1 12-1 29 2 39 6-27 23-49 58-41v29" id="K"/><path d="M141-36C126-15 110 5 73 4 37 3 15-17 15-53c-1-64 63-63 125-63 3-35-9-54-41-54-24 1-41 7-42 31l-33-3c5-37 33-52 76-52 45 0 72 20 72 64v82c-1 20 7 32 28 27v20c-31 9-61-2-59-35zM48-53c0 20 12 33 32 33 41-3 63-29 60-74-43 2-92-5-92 41" id="L"/><g id="c"><use transform="matrix(0.05,0,0,0.05,0,0)" xlink:href="#J"/><use transform="matrix(0.05,0,0,0.05,9,0)" xlink:href="#D"/><use transform="matrix(0.05,0,0,0.05,12.949999999999998,0)" xlink:href="#K"/><use transform="matrix(0.05,0,0,0.05,18.9,0)" xlink:href="#I"/><use transform="matrix(0.05,0,0,0.05,23.9,0)" xlink:href="#A"/><use transform="matrix(0.05,0,0,0.05,33.9,0)" xlink:href="#L"/><use transform="matrix(0.05,0,0,0.05,43.9,0)" xlink:href="#C"/></g><path d="M115-194c55 1 70 41 70 98S169 2 115 4C84 4 66-9 55-30l1 105H24l-1-265h31l2 30c10-21 28-34 59-34zm-8 174c40 0 45-34 45-75s-6-73-45-74c-42 0-51 32-51 76 0 43 10 73 51 73" id="M"/><g id="d"><use transform="matrix(0.05,0,0,0.05,0,0)" xlink:href="#M"/><use transform="matrix(0.05,0,0,0.05,10,0)" xlink:href="#K"/><use transform="matrix(0.05,0,0,0.05,15.949999999999998,0)" xlink:href="#D"/><use transform="matrix(0.05,0,0,0.05,19.9,0)" xlink:href="#J"/><use transform="matrix(0.05,0,0,0.05,28.899999999999995,0)" xlink:href="#L"/><use transform="matrix(0.05,0,0,0.05,38.9,0)" xlink:href="#I"/><use transform="matrix(0.05,0,0,0.05,43.9,0)" xlink:href="#H"/></g><path d="M100-194c62-1 85 37 85 99 1 63-27 99-86 99S16-35 15-95c0-66 28-99 85-99zM99-20c44 1 53-31 53-75 0-43-8-75-51-75s-53 32-53 75 10 74 51 75" id="N"/><path d="M85-194c31 0 48 13 60 33l-1-100h32l1 261h-30c-2-10 0-23-3-31C134-8 116 4 85 4 32 4 16-35 15-94c0-66 23-100 70-100zm9 24c-40 0-46 34-46 75 0 40 6 74 45 74 42 0 51-32 51-76 0-42-9-74-50-73" id="O"/><g id="e"><use transform="matrix(0.05,0,0,0.05,0,0)" xlink:href="#E"/><use transform="matrix(0.05,0,0,0.05,9,0)" xlink:href="#C"/><use transform="matrix(0.05,0,0,0.05,12.949999999999998,0)" xlink:href="#N"/><use transform="matrix(0.05,0,0,0.05,22.95,0)" xlink:href="#A"/><use transform="matrix(0.05,0,0,0.05,32.95,0)" xlink:href="#O"/></g><path d="M205 0l-28-72H64L36 0H1l101-248h38L239 0h-34zm-38-99l-47-123c-12 45-31 82-46 123h93" id="P"/><path d="M266 0h-40l-56-210L115 0H75L2-248h35L96-30l15-64 43-154h32l59 218 59-218h35" id="Q"/><path d="M185-189c-5-48-123-54-124 2 14 75 158 14 163 119 3 78-121 87-175 55-17-10-28-26-33-46l33-7c5 56 141 63 141-1 0-78-155-14-162-118-5-82 145-84 179-34 5 7 8 16 11 25" id="R"/><g id="f"><use transform="matrix(0.05,0,0,0.05,0,0)" xlink:href="#P"/><use transform="matrix(0.05,0,0,0.05,11.35,0)" xlink:href="#Q"/><use transform="matrix(0.05,0,0,0.05,28.299999999999997,0)" xlink:href="#R"/></g><g id="g"><use transform="matrix(0.05,0,0,0.05,0,0)" xlink:href="#z"/><use transform="matrix(0.05,0,0,0.05,12,0)" xlink:href="#K"/><use transform="matrix(0.05,0,0,0.05,17.95,0)" xlink:href="#D"/><use transform="matrix(0.05,0,0,0.05,21.9,0)" xlink:href="#J"/><use transform="matrix(0.05,0,0,0.05,30.899999999999995,0)" xlink:href="#L"/><use transform="matrix(0.05,0,0,0.05,40.9,0)" xlink:href="#I"/><use transform="matrix(0.05,0,0,0.05,45.9,0)" xlink:href="#H"/></g><path d="M194 0L95-120 63-95V0H30v-248h33v124l119-124h40L117-140 236 0h-42" id="S"/><path d="M134-131c28 9 52 24 51 62-1 50-34 73-85 73S17-19 16-69c0-36 21-54 49-61-75-25-45-126 34-121 46 3 78 18 79 63 0 33-17 51-44 57zm-34-11c31 1 46-15 46-44 0-28-17-43-47-42-29 0-46 13-45 42 1 28 16 44 46 44zm1 122c35 0 51-18 51-52 0-30-18-46-53-46-33 0-51 17-51 47 0 34 19 51 53 51" id="T"/><g id="h"><use transform="matrix(0.05,0,0,0.05,0,0)" xlink:href="#S"/><use transform="matrix(0.05,0,0,0.05,12,0)" xlink:href="#T"/><use transform="matrix(0.05,0,0,0.05,22,0)" xlink:href="#F"/></g><path d="M240 0l2-218c-23 76-54 145-80 218h-23L58-218 59 0H30v-248h44l77 211c21-75 51-140 76-211h43V0h-30" id="U"/><path d="M177-190C167-65 218 103 67 71c-23-6-38-20-44-43l32-5c15 47 100 32 89-28v-30C133-14 115 1 83 1 29 1 15-40 15-95c0-56 16-97 71-98 29-1 48 16 59 35 1-10 0-23 2-32h30zM94-22c36 0 50-32 50-73 0-42-14-75-50-75-39 0-46 34-46 75s6 73 46 73" id="V"/><g id="i"><use transform="matrix(0.05,0,0,0.05,0,0)" xlink:href="#U"/><use transform="matrix(0.05,0,0,0.05,14.950000000000001,0)" xlink:href="#L"/><use transform="matrix(0.05,0,0,0.05,24.950000000000003,0)" xlink:href="#G"/><use transform="matrix(0.05,0,0,0.05,34.95,0)" xlink:href="#L"/><use transform="matrix(0.05,0,0,0.05,44.95,0)" xlink:href="#V"/><use transform="matrix(0.05,0,0,0.05,54.95,0)" xlink:href="#H"/><use transform="matrix(0.05,0,0,0.05,64.95,0)" xlink:href="#K"/></g><path d="M190 0L58-211 59 0H30v-248h39L202-35l-2-213h31V0h-41" id="W"/><path d="M127-220V0H93v-220H8v-28h204v28h-85" id="X"/><g id="j"><use transform="matrix(0.05,0,0,0.05,0,0)" xlink:href="#W"/><use transform="matrix(0.05,0,0,0.05,12.950000000000001,0)" xlink:href="#P"/><use transform="matrix(0.05,0,0,0.05,23.6,0)" xlink:href="#X"/></g><path d="M153-248C145-148 188 4 80 4 36 3 13-21 6-62l32-5c4 25 16 42 43 43 27 0 39-20 39-49v-147H72v-28h81" id="Y"/><path d="M143 0L79-87 56-68V0H24v-261h32v163l83-92h37l-77 82L181 0h-38" id="Z"/><g id="k"><use transform="matrix(0.05,0,0,0.05,0,0)" xlink:href="#Y"/><use transform="matrix(0.05,0,0,0.05,9,0)" xlink:href="#H"/><use transform="matrix(0.05,0,0,0.05,19,0)" xlink:href="#G"/><use transform="matrix(0.05,0,0,0.05,29,0)" xlink:href="#Z"/><use transform="matrix(0.05,0,0,0.05,38,0)" xlink:href="#D"/><use transform="matrix(0.05,0,0,0.05,41.95,0)" xlink:href="#G"/><use transform="matrix(0.05,0,0,0.05,51.95,0)" xlink:href="#F"/></g><g id="l"><use transform="matrix(0.05,0,0,0.05,0,0)" xlink:href="#W"/><use transform="matrix(0.05,0,0,0.05,12.950000000000001,0)" xlink:href="#N"/><use transform="matrix(0.05,0,0,0.05,22.950000000000003,0)" xlink:href="#O"/><use transform="matrix(0.05,0,0,0.05,32.95,0)" xlink:href="#H"/></g><g id="m"><use transform="matrix(0.05,0,0,0.05,0,0)" xlink:href="#D"/><use transform="matrix(0.05,0,0,0.05,3.95,0)" xlink:href="#G"/><use transform="matrix(0.05,0,0,0.05,13.949999999999998,0)" xlink:href="#I"/><use transform="matrix(0.05,0,0,0.05,18.95,0)" xlink:href="#H"/><use transform="matrix(0.05,0,0,0.05,28.950000000000003,0)" xlink:href="#K"/><use transform="matrix(0.05,0,0,0.05,34.9,0)" xlink:href="#G"/><use transform="matrix(0.05,0,0,0.05,44.9,0)" xlink:href="#H"/><use transform="matrix(0.05,0,0,0.05,54.900000000000006,0)" xlink:href="#I"/></g><path d="M206 0h-36l-40-164L89 0H53L-1-190h32L70-26l43-164h34l41 164 42-164h31" id="aa"/><path d="M179-190L93 31C79 59 56 82 12 73V49c39 6 53-20 64-50L1-190h34L92-34l54-156h33" id="ab"/><g id="n"><use transform="matrix(0.05,0,0,0.05,0,0)" xlink:href="#V"/><use transform="matrix(0.05,0,0,0.05,10,0)" xlink:href="#L"/><use transform="matrix(0.05,0,0,0.05,20,0)" xlink:href="#I"/><use transform="matrix(0.05,0,0,0.05,25,0)" xlink:href="#H"/><use transform="matrix(0.05,0,0,0.05,35,0)" xlink:href="#aa"/><use transform="matrix(0.05,0,0,0.05,47.95,0)" xlink:href="#L"/><use transform="matrix(0.05,0,0,0.05,57.95,0)" xlink:href="#ab"/></g><g id="o"><use transform="matrix(0.05,0,0,0.05,0,0)" xlink:href="#S"/><use transform="matrix(0.05,0,0,0.05,12,0)" xlink:href="#T"/><use transform="matrix(0.05,0,0,0.05,22,0)" xlink:href="#F"/></g><g id="p"><use transform="matrix(0.05,0,0,0.05,0,0)" xlink:href="#Q"/><use transform="matrix(0.05,0,0,0.05,16.599999999999998,0)" xlink:href="#N"/><use transform="matrix(0.05,0,0,0.05,26.599999999999994,0)" xlink:href="#K"/><use transform="matrix(0.05,0,0,0.05,32.55,0)" xlink:href="#Z"/><use transform="matrix(0.05,0,0,0.05,41.55,0)" xlink:href="#H"/><use transform="matrix(0.05,0,0,0.05,51.54999999999999,0)" xlink:href="#K"/></g><g id="q"><use transform="matrix(0.05,0,0,0.05,0,0)" xlink:href="#z"/><use transform="matrix(0.05,0,0,0.05,12,0)" xlink:href="#K"/><use transform="matrix(0.05,0,0,0.05,17.95,0)" xlink:href="#D"/><use transform="matrix(0.05,0,0,0.05,21.9,0)" xlink:href="#J"/><use transform="matrix(0.05,0,0,0.05,30.899999999999995,0)" xlink:href="#L"/><use transform="matrix(0.05,0,0,0.05,40.9,0)" xlink:href="#I"/><use transform="matrix(0.05,0,0,0.05,45.9,0)" xlink:href="#H"/></g><g id="r"><use transform="matrix(0.05,0,0,0.05,0,0)" xlink:href="#F"/><use transform="matrix(0.05,0,0,0.05,9,0)" xlink:href="#A"/><use transform="matrix(0.05,0,0,0.05,19,0)" xlink:href="#B"/><use transform="matrix(0.05,0,0,0.05,29,0)" xlink:href="#G"/><use transform="matrix(0.05,0,0,0.05,39,0)" xlink:href="#H"/><use transform="matrix(0.05,0,0,0.05,49,0)" xlink:href="#I"/></g><g id="s"><use transform="matrix(0.05,0,0,0.05,0,0)" xlink:href="#z"/><use transform="matrix(0.05,0,0,0.05,12,0)" xlink:href="#A"/><use transform="matrix(0.05,0,0,0.05,22,0)" xlink:href="#B"/><use transform="matrix(0.05,0,0,0.05,32,0)" xlink:href="#C"/><use transform="matrix(0.05,0,0,0.05,35.95,0)" xlink:href="#D"/><use transform="matrix(0.05,0,0,0.05,39.900000000000006,0)" xlink:href="#E"/></g><g id="t"><use transform="matrix(0.05,0,0,0.05,0,0)" xlink:href="#P"/><use transform="matrix(0.05,0,0,0.05,12,0)" xlink:href="#M"/><use transform="matrix(0.05,0,0,0.05,22,0)" xlink:href="#M"/><use transform="matrix(0.05,0,0,0.05,32,0)" xlink:href="#C"/><use transform="matrix(0.05,0,0,0.05,35.95,0)" xlink:href="#D"/><use transform="matrix(0.05,0,0,0.05,39.900000000000006,0)" xlink:href="#E"/><use transform="matrix(0.05,0,0,0.05,48.900000000000006,0)" xlink:href="#L"/><use transform="matrix(0.05,0,0,0.05,58.900000000000006,0)" xlink:href="#I"/><use transform="matrix(0.05,0,0,0.05,63.900000000000006,0)" xlink:href="#D"/><use transform="matrix(0.05,0,0,0.05,67.85000000000001,0)" xlink:href="#N"/><use transform="matrix(0.05,0,0,0.05,77.85000000000001,0)" xlink:href="#G"/></g><path d="M30 0v-248h33v221h125V0H30" id="ac"/><g id="u"><use transform="matrix(0.05,0,0,0.05,0,0)" xlink:href="#ac"/><use transform="matrix(0.05,0,0,0.05,10,0)" xlink:href="#N"/><use transform="matrix(0.05,0,0,0.05,20,0)" xlink:href="#L"/><use transform="matrix(0.05,0,0,0.05,30,0)" xlink:href="#O"/></g><path d="M160-131c35 5 61 23 61 61C221 17 115-2 30 0v-248c76 3 177-17 177 60 0 33-19 50-47 57zm-97-11c50-1 110 9 110-42 0-47-63-36-110-37v79zm0 115c55-2 124 14 124-45 0-56-70-42-124-44v89" id="ad"/><g id="v"><use transform="matrix(0.05,0,0,0.05,0,0)" xlink:href="#ad"/><use transform="matrix(0.05,0,0,0.05,12,0)" xlink:href="#L"/><use transform="matrix(0.05,0,0,0.05,22,0)" xlink:href="#C"/><use transform="matrix(0.05,0,0,0.05,25.950000000000003,0)" xlink:href="#L"/><use transform="matrix(0.05,0,0,0.05,35.95,0)" xlink:href="#G"/><use transform="matrix(0.05,0,0,0.05,45.95,0)" xlink:href="#E"/><use transform="matrix(0.05,0,0,0.05,54.95,0)" xlink:href="#H"/><use transform="matrix(0.05,0,0,0.05,64.95,0)" xlink:href="#K"/></g><path d="M210-169c-67 3-38 105-44 169h-31v-121c0-29-5-50-35-48C34-165 62-65 56 0H25l-1-190h30c1 10-1 24 2 32 10-44 99-50 107 0 11-21 27-35 58-36 85-2 47 119 55 194h-31v-121c0-29-5-49-35-48" id="ae"/><path d="M9 0v-24l116-142H16v-24h144v24L44-24h123V0H9" id="af"/><g id="w"><use transform="matrix(0.05,0,0,0.05,0,0)" xlink:href="#P"/><use transform="matrix(0.05,0,0,0.05,12,0)" xlink:href="#ae"/><use transform="matrix(0.05,0,0,0.05,26.950000000000003,0)" xlink:href="#L"/><use transform="matrix(0.05,0,0,0.05,36.95,0)" xlink:href="#af"/><use transform="matrix(0.05,0,0,0.05,45.95,0)" xlink:href="#N"/><use transform="matrix(0.05,0,0,0.05,55.95,0)" xlink:href="#G"/></g><path d="M233-177c-1 41-23 64-60 70L243 0h-38l-65-103H63V0H30v-248c88 3 205-21 203 71zM63-129c60-2 137 13 137-47 0-61-80-42-137-45v92" id="ag"/><g id="x"><use transform="matrix(0.05,0,0,0.05,0,0)" xlink:href="#ag"/><use transform="matrix(0.05,0,0,0.05,12.950000000000001,0)" xlink:href="#N"/><use transform="matrix(0.05,0,0,0.05,22.950000000000003,0)" xlink:href="#A"/><use transform="matrix(0.05,0,0,0.05,32.95,0)" xlink:href="#I"/><use transform="matrix(0.05,0,0,0.05,37.95,0)" xlink:href="#H"/></g><path d="M54-142c48-35 137-8 131 61C196 18 31 33 14-55l32-4c7 23 22 37 52 37 35-1 51-22 54-58 4-55-73-65-99-34H22l8-134h141v27H59" id="ah"/><path d="M126-127c33 6 58 20 58 59 0 88-139 92-164 29-3-8-5-16-6-25l32-3c6 27 21 44 54 44 32 0 52-15 52-46 0-38-36-46-79-43v-28c39 1 72-4 72-42 0-27-17-43-46-43-28 0-47 15-49 41l-32-3c6-42 35-63 81-64 48-1 79 21 79 65 0 36-21 52-52 59" id="ai"/><g id="y"><use transform="matrix(0.05,0,0,0.05,0,0)" xlink:href="#ah"/><use transform="matrix(0.05,0,0,0.05,10,0)" xlink:href="#ai"/></g></defs></g></svg>